<?xml version="1.0" encoding="UTF-8" standalone="no"?>
<!-- Created with Inkscape (http://www.inkscape.org/) -->

<svg
   xmlns:dc="http://purl.org/dc/elements/1.1/"
   xmlns:cc="http://creativecommons.org/ns#"
   xmlns:rdf="http://www.w3.org/1999/02/22-rdf-syntax-ns#"
   xmlns:svg="http://www.w3.org/2000/svg"
   xmlns="http://www.w3.org/2000/svg"
   xmlns:sodipodi="http://sodipodi.sourceforge.net/DTD/sodipodi-0.dtd"
   xmlns:inkscape="http://www.inkscape.org/namespaces/inkscape"
   width="9.4751902mm"
   height="9.4751902mm"
   viewBox="0 0 9.4751902 9.4751907"
   version="1.1"
   id="svg8"
   inkscape:version="0.92.3 (2405546, 2018-03-11)"
   sodipodi:docname="dynamo.svg">
  <defs
     id="defs2" />
  <sodipodi:namedview
     id="base"
     pagecolor="#ffffff"
     bordercolor="#666666"
     borderopacity="1.0"
     inkscape:pageopacity="0.0"
     inkscape:pageshadow="2"
     inkscape:zoom="0.7"
     inkscape:cx="-145.46592"
     inkscape:cy="328.68056"
     inkscape:document-units="mm"
     inkscape:current-layer="layer1"
     showgrid="false"
     inkscape:window-width="1853"
     inkscape:window-height="1025"
     inkscape:window-x="67"
     inkscape:window-y="27"
     inkscape:window-maximized="1"
     fit-margin-top="0"
     fit-margin-left="0.08789"
     fit-margin-right="0.08788"
     fit-margin-bottom="0" />
  <metadata
     id="metadata5">
    <rdf:RDF>
      <cc:Work
         rdf:about="">
        <dc:format>image/svg+xml</dc:format>
        <dc:type
           rdf:resource="http://purl.org/dc/dcmitype/StillImage" />
        <dc:title></dc:title>
      </cc:Work>
    </rdf:RDF>
  </metadata>
  <g
     inkscape:label="Calque 1"
     inkscape:groupmode="layer"
     id="layer1"
     transform="translate(-116.19152,-134.54877)">
    <path
       inkscape:connector-curvature="0"
       style="overflow:visible;fill:#333333;fill-opacity:0.98039216;stroke:#ffffff;stroke-width:0.25206742;stroke-miterlimit:4;stroke-dasharray:none;stroke-opacity:0.98039216"
       d="m 120.21917,141.948 c 0,0 -0.52168,0.0708 -0.7643,0.0215 0,0 -0.58884,-0.12549 -0.8199,-0.26828 -0.29717,-0.13344 -0.45028,-0.44285 -0.45028,-0.44285 0.15337,-0.28539 1.05404,-0.6575 1.05404,-0.6575 0.147,-0.0815 0.147,-0.24442 0.0367,-0.40736 0,0 -0.47766,-0.61101 -0.47766,-1.30354 0,-0.97765 0.55114,-1.79235 1.24925,-1.79235 0.69817,0 1.24932,0.8147 1.24932,1.79235 0,0.69253 -0.44091,1.30354 -0.44091,1.30354 -0.1103,0.16298 -0.0735,0.32588 0.0735,0.40736 l 0.4042,0.2444 c 0.1103,0.24442 0.22044,0.44809 0.29394,0.57029 0,0 -0.47468,0.28184 -0.9068,0.36538 -0.17825,0.0345 -0.5011,0.16708 -0.5011,0.16708 z"
       id="path7820-5-8"
       sodipodi:nodetypes="csccccsssccccscc" />
    <path
       inkscape:connector-curvature="0"
       style="overflow:visible;fill:#333333;fill-opacity:0.98039216;stroke:#ffffff;stroke-width:0.24248514;stroke-miterlimit:4;stroke-dasharray:none;stroke-opacity:0.98039216"
       d="m 123.52128,141.3195 -0.69813,-0.40736 c -0.14699,-0.0815 -0.18374,-0.28513 -0.0735,-0.40734 0,0 0.44091,-0.61103 0.44091,-1.30352 0,-0.97765 -0.55116,-1.79237 -1.24926,-1.79237 -0.69815,0 -1.24929,0.81472 -1.24929,1.79237 0,0.69249 0.47768,1.30352 0.47768,1.30352 0.11018,0.16298 0.11018,0.32589 -0.0368,0.4481 0,0 -0.91477,0.46595 -1.12048,0.84575 -0.20571,0.3798 -0.16727,1.05579 -0.16727,1.05579 l 3.67609,0.013 z"
       id="path7142-7-2"
       sodipodi:nodetypes="cccssscczccc" />
    <path
       style="fill:none;fill-rule:evenodd;stroke:#ffffff;stroke-width:0.37000003;stroke-linecap:butt;stroke-linejoin:miter;stroke-miterlimit:4;stroke-dasharray:none;stroke-opacity:1"
       d="m 118.23325,139.57332 c 0,0 0.18296,-0.22843 0.31499,-0.37167 0.13203,-0.14324 0.51656,-0.44098 0.51656,-0.44098 0,0 -0.24163,-0.15598 -0.4315,-0.34308 -0.18988,-0.18709 -0.4417,-0.55591 -0.50082,-0.67745"
       id="path4141-3"
       inkscape:connector-curvature="0"
       sodipodi:nodetypes="czcsc" />
    <path
       style="opacity:1;fill:#7ca9ef;fill-opacity:0.98039216;stroke:#003d9c;stroke-width:0.26115096;stroke-linecap:square;stroke-linejoin:miter;stroke-miterlimit:4;stroke-dasharray:none;stroke-dashoffset:0;stroke-opacity:0.98039216"
       d="m 118.50917,143.51219 c -1.63271,-0.51492 -2.57622,-3.10799 -1.99948,-5.49516 0.17018,-0.70437 0.42499,-1.22712 0.8455,-1.73456 0.40242,-0.48558 0.77189,-0.65723 1.18008,-0.81136 l 0.23709,-0.0895 -0.002,-0.60179 c 0.64972,0.38972 1.00995,0.69169 1.27528,0.89911 -0.38593,0.42103 -0.9243,0.89622 -1.22911,1.20023 0,0 -0.0197,-0.54796 -0.0593,-0.82054 0,0 -0.57715,0.18169 -0.76284,0.47772 -0.36719,0.64274 0.18669,1.74349 0.72133,2.2381 -0.7747,0.79509 -1.15719,2.12814 -0.6251,2.82811 0.25887,0.3351 0.75353,0.47231 0.8956,0.47323 0.0647,5.4e-4 0.0487,-0.065 0.0487,0.68816 v 0.82497 l -0.15184,-0.003 c -0.0835,-0.002 -0.25204,-0.0349 -0.37454,-0.0735 z"
       id="path8928-8-3"
       inkscape:connector-curvature="0"
       sodipodi:nodetypes="cccsccccccccccsccc" />
    <path
       style="fill:none;fill-rule:evenodd;stroke:#f3fbf3;stroke-width:0.41100001;stroke-linecap:butt;stroke-linejoin:miter;stroke-miterlimit:4;stroke-dasharray:none;stroke-opacity:0.98039216"
       d="m 124.05658,141.42613 c 0,0 -0.19133,0.31462 -0.34017,0.41579 -0.14883,0.10116 -0.50396,0.30238 -0.50396,0.30238 l -0.0126,-0.71815 -1.13393,0.91974 -0.86935,0.85674"
       id="path4328"
       inkscape:connector-curvature="0"
       sodipodi:nodetypes="czcccc" />
    <path
       style="fill:none;fill-rule:evenodd;stroke:#ffffff;stroke-width:0.38200003;stroke-linecap:butt;stroke-linejoin:miter;stroke-miterlimit:4;stroke-dasharray:none;stroke-opacity:1"
       d="m 123.83106,138.45987 c 0,0 -0.23336,0.29143 -0.36539,0.43467 -0.13203,0.14324 -0.52916,0.46618 -0.52916,0.46618 0.2274,0.30121 0.67549,0.84045 0.79373,1.08353"
       id="path4141"
       inkscape:connector-curvature="0"
       sodipodi:nodetypes="czcc" />
    <path
       style="opacity:1;fill:#ff6363;fill-opacity:0.98039216;stroke:#9d0f0f;stroke-width:0.25867838;stroke-linecap:square;stroke-linejoin:miter;stroke-miterlimit:4;stroke-dasharray:none;stroke-dashoffset:0;stroke-opacity:0.98039216"
       d="m 123.38808,135.01894 c 1.60124,0.51514 2.52656,3.10935 1.96093,5.49758 -0.1669,0.70467 -0.4168,1.22765 -0.82921,1.73533 -0.39465,0.48578 -0.74801,0.74908 -1.15732,0.86231 l -0.23251,0.0643 -0.0398,0.60206 c -0.7211,-0.52804 -0.98147,-0.74579 -1.20947,-0.92482 0.4696,-0.48921 1.1848,-1.04895 1.1848,-1.04895 0.007,0.27725 0.021,0.40073 0.0437,0.67956 0,0 0.58062,-0.31873 0.76271,-0.6149 0.67879,-0.80838 -0.25056,-1.73464 -0.6886,-2.47816 0.75976,-0.79542 1.13667,-1.76349 0.61485,-2.46377 -0.25388,-0.33526 -0.73902,-0.47252 -0.87834,-0.47342 -0.0634,-5.6e-4 -0.0478,0.065 -0.0478,-0.68848 v -0.82534 l 0.14891,0.003 c 0.0819,0.002 0.24719,0.0349 0.36731,0.0735 z"
       id="path8928-8-3-4"
       inkscape:connector-curvature="0"
       sodipodi:nodetypes="cccsccccccccccsccc" />
    <path
       inkscape:connector-curvature="0"
       style="overflow:visible;fill:#ffffff"
       d="m 123.82976,138.78488 h 0.62809 v 0.5691 c 0,0.18972 -0.0331,0.37943 -0.0992,0.49323 -0.066,0.11386 -0.19837,0.22766 -0.39671,0.30354 l -0.13224,-0.30354 c 0.13224,-0.0379 0.19835,-0.11385 0.23142,-0.15176 0.0332,-0.0758 0.0661,-0.11385 0.0661,-0.22764 h -0.29752 v -0.68293 z m 0.72726,0 h 0.62809 v 0.5691 c 0,0.18972 -0.0332,0.37943 -0.0992,0.49323 -0.066,0.11386 -0.19832,0.22766 -0.36362,0.30354 l -0.16527,-0.30354 c 0.13222,-0.0379 0.19834,-0.11385 0.23139,-0.15176 0.0331,-0.0758 0.066,-0.11385 0.066,-0.22764 h -0.29753 v -0.68293 z"
       id="path71-3" />
    <path
       inkscape:connector-curvature="0"
       style="overflow:visible;fill:#ffffff"
       d="m 116.7553,138.38801 h 0.62809 v 0.5691 c 0,0.18972 -0.0331,0.37943 -0.0992,0.49323 -0.066,0.11386 -0.19837,0.22766 -0.39671,0.30354 l -0.13224,-0.30354 c 0.13224,-0.0379 0.19835,-0.11385 0.23142,-0.15176 0.0332,-0.0758 0.0661,-0.11385 0.0661,-0.22764 h -0.29752 v -0.68293 z m 0.72726,0 h 0.62809 v 0.5691 c 0,0.18972 -0.0332,0.37943 -0.0992,0.49323 -0.066,0.11386 -0.19832,0.22766 -0.36362,0.30354 l -0.16527,-0.30354 c 0.13222,-0.0379 0.19834,-0.11385 0.23139,-0.15176 0.0331,-0.0758 0.066,-0.11385 0.066,-0.22764 h -0.29753 v -0.68293 z"
       id="path71-3-6" />
  </g>
</svg>
