<?xml version="1.0" encoding="UTF-8" standalone="no"?>
<!-- Generator: Adobe Illustrator 25.2.1, SVG Export Plug-In . SVG Version: 6.00 Build 0)  -->

<svg
   width="24px"
   height="24px"
   version="1.1"
   id="Layer_1"
   x="0px"
   y="0px"
   viewBox="0 0 74.4 74.4"
   style="enable-background:new 0 0 74.4 74.4;"
   xml:space="preserve"
   preserveAspectRatio="xMinYMid meet"
   sodipodi:docname="monologodynamo3.svg"
   inkscape:version="1.2.2 (b0a8486, 2022-12-01)"
   xmlns:inkscape="http://www.inkscape.org/namespaces/inkscape"
   xmlns:sodipodi="http://sodipodi.sourceforge.net/DTD/sodipodi-0.dtd"
   xmlns="http://www.w3.org/2000/svg"
   xmlns:svg="http://www.w3.org/2000/svg"><defs
   id="defs70">
	
	
	
	
</defs><sodipodi:namedview
   id="namedview68"
   pagecolor="#ffffff"
   bordercolor="#666666"
   borderopacity="1.0"
   inkscape:showpageshadow="2"
   inkscape:pageopacity="0.0"
   inkscape:pagecheckerboard="0"
   inkscape:deskcolor="#d1d1d1"
   showgrid="false"
   inkscape:zoom="3.2260381"
   inkscape:cx="25.573163"
   inkscape:cy="26.813074"
   inkscape:window-width="1463"
   inkscape:window-height="847"
   inkscape:window-x="0"
   inkscape:window-y="25"
   inkscape:window-maximized="0"
   inkscape:current-layer="Layer_1" />

<ellipse
   style="stroke:#000000;stroke-width:0;stroke-linecap:round;stroke-dasharray:none;stroke-opacity:1;fill-rule:nonzero;fill:none"
   id="path1516"
   cx="29.976637"
   cy="39.244225"
   rx="3.7756834"
   ry="4.4621711" /><ellipse
   style="fill:#000000;fill-opacity:1;fill-rule:nonzero;stroke-width:7.502"
   id="path1067"
   cx="37.200001"
   cy="11.056726"
   rx="7.9905748"
   ry="7.711834" /><ellipse
   style="fill:#000000;fill-opacity:1;fill-rule:nonzero;stroke-width:7.502"
   id="path1067-5"
   cx="62.804279"
   cy="63.73877"
   rx="7.9905748"
   ry="7.711834" /><ellipse
   style="fill:#000000;fill-opacity:1;fill-rule:nonzero;stroke-width:7.502"
   id="path1067-7"
   cx="11.707121"
   cy="63.73877"
   rx="7.9905748"
   ry="7.711834" /><path
   id="path1161"
   style="color:#000000;fill:#000000;-inkscape-stroke:none"
   d="M 42.058421 26.072093 A 11.157623 10.225983 12.267872 0 1 31.678711 28.887127 A 11.157623 10.225983 12.267872 0 1 23.692373 22.463249 C 10.695101 24.319907 0.55207787 34.932606 -0.49751831 48.051696 C -0.66733371 50.174249 -0.56221353 52.263546 -0.26292458 54.301787 A 11.157623 10.225983 12.267872 0 1 8.1803866 66.646785 A 11.157623 10.225983 12.267872 0 1 7.0198354 69.397542 C 10.485675 73.108362 14.958801 75.934943 20.126047 77.363889 C 25.867619 78.951661 31.769998 78.649154 37.095832 76.784496 A 11.157623 10.225983 12.267872 0 1 37.191671 73.635528 A 11.157623 10.225983 12.267872 0 1 50.312506 66.076276 A 11.157623 10.225983 12.267872 0 1 50.969017 66.24717 C 51.710522 65.181789 52.404562 64.075133 53.003103 62.890452 L 42.212006 57.443155 C 38.735 64.325105 30.873218 67.796985 23.349215 65.716301 C 15.82521 63.635617 10.937343 56.673943 11.550189 49.013851 C 12.163036 41.353755 18.109039 35.229678 25.873738 34.351745 C 33.638439 33.473813 40.835016 38.127021 43.171865 45.459477 L 54.69205 41.787673 C 52.522541 34.980293 47.907868 29.497819 42.058421 26.072093 z "
   transform="matrix(0.97613875,-0.21714773,0.21813873,0.97591777,0,0)" /><path
   sodipodi:type="star"
   style="fill:#000000;fill-opacity:1;stroke:#000000;stroke-width:9.3;stroke-dasharray:none;stroke-opacity:1"
   id="path1703"
   inkscape:flatsided="false"
   sodipodi:sides="3"
   sodipodi:cx="15.052014"
   sodipodi:cy="17.653597"
   sodipodi:r1="14.109422"
   sodipodi:r2="7.0547109"
   sodipodi:arg1="0.70148354"
   sodipodi:arg2="1.7486811"
   inkscape:rounded="0"
   inkscape:randomized="0"
   d="M 25.829999,26.759135 13.803697,24.596986 1.7773944,22.434836 9.6630222,13.100828 17.54865,3.7668193 21.689324,15.262977 Z"
   inkscape:transform-center-x="2.520901"
   inkscape:transform-center-y="-0.255111"
   transform="matrix(-0.10432118,-0.50028997,0.59906922,-0.26905401,48.623089,44.315837)" /><path
   sodipodi:type="star"
   style="fill:none;fill-opacity:0.4;fill-rule:evenodd;stroke:none;stroke-width:0.5332;stroke-dasharray:none"
   id="path2829"
   inkscape:flatsided="false"
   sodipodi:sides="3"
   sodipodi:cx="53.196827"
   sodipodi:cy="22.983095"
   sodipodi:r1="4.5099158"
   sodipodi:r2="2.2549579"
   sodipodi:arg1="1.3397057"
   sodipodi:arg2="2.3869032"
   inkscape:rounded="0"
   inkscape:randomized="0"
   d="m 54.229775,27.373125 -2.67565,-2.845243 -2.675649,-2.845242 3.801877,-0.89456 3.801877,-0.894559 -1.126227,3.739802 z"
   inkscape:transform-center-x="0.51647406"
   inkscape:transform-center-y="0.65022772" /></svg>
