<?xml version="1.0" encoding="UTF-8" standalone="no"?>
<!-- Generator: Adobe Illustrator 25.2.1, SVG Export Plug-In . SVG Version: 6.00 Build 0)  -->

<svg
   width="24px"
   height="24px"
   version="1.1"
   id="Layer_1"
   x="0px"
   y="0px"
   viewBox="0 0 74.4 74.4"
   style="enable-background:new 0 0 74.4 74.4;"
   xml:space="preserve"
   preserveAspectRatio="xMinYMid meet"
   sodipodi:docname="monologodynamo5color.svg"
   inkscape:version="1.2.2 (b0a8486, 2022-12-01)"
   xmlns:inkscape="http://www.inkscape.org/namespaces/inkscape"
   xmlns:sodipodi="http://sodipodi.sourceforge.net/DTD/sodipodi-0.dtd"
   xmlns="http://www.w3.org/2000/svg"
   xmlns:svg="http://www.w3.org/2000/svg"><defs
   id="defs70">
	
	
	
	
</defs><sodipodi:namedview
   id="namedview68"
   pagecolor="#ffffff"
   bordercolor="#666666"
   borderopacity="1.0"
   inkscape:showpageshadow="2"
   inkscape:pageopacity="0.0"
   inkscape:pagecheckerboard="0"
   inkscape:deskcolor="#d1d1d1"
   showgrid="false"
   inkscape:zoom="2.8022708"
   inkscape:cx="9.9918967"
   inkscape:cy="18.021099"
   inkscape:window-width="1280"
   inkscape:window-height="667"
   inkscape:window-x="1417"
   inkscape:window-y="28"
   inkscape:window-maximized="0"
   inkscape:current-layer="Layer_1"
   showguides="false" />

<ellipse
   style="fill:#000000;fill-opacity:1;fill-rule:nonzero;stroke-width:7.502"
   id="path1067"
   cx="36.859512"
   cy="11.056726"
   rx="7.9905748"
   ry="7.711834" /><ellipse
   style="fill:#000000;fill-opacity:1;fill-rule:nonzero;stroke-width:7.502"
   id="path1067-5"
   cx="62.804279"
   cy="63.73877"
   rx="7.9905748"
   ry="7.711834" /><ellipse
   style="fill:#000000;fill-opacity:1;fill-rule:nonzero;stroke-width:7.502"
   id="path1067-7"
   cx="11.707121"
   cy="63.73877"
   rx="7.9905748"
   ry="7.711834" /><path
   id="path1161"
   style="color:#000000;fill:#000000;stroke-width:0.999995;-inkscape-stroke:none"
   d="m 45.955078,15.856114 a 10.850001,10.850001 36.294041 0 1 -9.009375,5.176758 10.850001,10.850001 36.294041 0 1 -8.845899,-4.928515 c -2.821487,0.97758 -5.531226,2.404341 -8.010351,4.329101 C 9.8324351,28.396879 6.6313462,42.158113 11.425195,53.661584 a 10.850001,10.850001 36.294041 0 1 10.323242,10.825781 10.850001,10.850001 36.294041 0 1 -0.217968,1.628711 c 9.28937,6.372197 21.801769,6.797804 31.520702,0.484375 a 10.850001,10.850001 36.294041 0 1 -0.230077,-1.76797 10.850001,10.850001 36.294041 0 1 10.795507,-10.843944 c 3.850366,-9.146807 2.7982,-20.090446 -3.723632,-28.475196 l -8.028515,6.224219 c 6.205801,7.978451 4.805455,19.29099 -3.148438,25.459961 -7.953893,6.168971 -19.280497,4.724028 -25.490234,-3.251367 -6.209741,-7.975397 -4.820547,-19.287043 3.130273,-25.459961 7.950821,-6.172917 19.282616,-4.733083 25.496289,3.239257 l 8.022461,-6.236328 C 56.193471,20.765853 51.290914,17.527365 45.955078,15.856114 Z" /><path
   id="path1291"
   style="fill:#ffffff;fill-opacity:1;fill-rule:evenodd;stroke-width:0.725418"
   inkscape:transform-center-x="1.3801922"
   inkscape:transform-center-y="-1.5998243"
   d="M 47.858782,76.168427 47.547541,75.299185 32.779351,74.72915 22.072628,72.806015 20.370982,66.076029 c 0,0 5.14971,0.786754 7.471218,-0.123319 2.321508,-0.910073 3.497287,-1.761804 4.76501,-3.208351 1.267723,-1.446547 2.295083,-5.001723 1.802895,-5.9861 l 7.66695,-0.943852 z"
   sodipodi:nodetypes="ccccczzccc" /><path
   id="path1291-0"
   style="fill:#ffffff;fill-opacity:1;fill-rule:evenodd;stroke-width:0.725418"
   inkscape:transform-center-x="1.2792461"
   inkscape:transform-center-y="0.3838702"
   d="m 0.90741574,41.496271 5.82998396,-13.588013 6.0647483,-7.520553 7.997545,-7.37371 7.505434,2.55332 c 0,0 -4.927509,3.886318 -6.248943,6.283595 -1.321432,2.397277 -1.72271,3.611031 -1.559893,6.090989 0.162813,2.479961 1.516803,4.999178 2.59867,5.20118 l -0.01739,8.924321 z"
   sodipodi:nodetypes="ccccczzccc" /><path
   id="path1291-0-4"
   style="fill:#ffffff;fill-opacity:1;fill-rule:evenodd;stroke-width:0.725418"
   inkscape:transform-center-x="2.8203926"
   inkscape:transform-center-y="0.7569062"
   d="m 62.295598,17.529568 0.09144,0.947853 7.333395,20.601451 0.512431,10.86599 -6.778631,4.1111 c 0,0 0.187614,-6.272847 -0.800476,-8.82565 -0.988094,-2.552801 -1.660403,-3.6401 -3.665435,-5.108621 -2.00505,-1.468498 -4.805435,-2.049452 -5.655295,-1.350181 l -7.551943,-7.291006 z"
   sodipodi:nodetypes="ccccczzccc" /><path
   sodipodi:type="star"
   style="fill:#000000;fill-opacity:1;fill-rule:evenodd;stroke:none;stroke-width:0.5332"
   id="path1460"
   inkscape:flatsided="true"
   sodipodi:sides="3"
   sodipodi:cx="36.668713"
   sodipodi:cy="51.515747"
   sodipodi:r1="5.1241198"
   sodipodi:r2="2.5620596"
   sodipodi:arg1="0.91920914"
   sodipodi:arg2="1.9664067"
   inkscape:rounded="0"
   inkscape:randomized="0"
   d="m 39.776231,55.590049 -8.189726,-3.420263 7.056897,-5.382379 z"
   inkscape:transform-center-x="-0.066887309"
   inkscape:transform-center-y="-1.8707112"
   transform="matrix(-1.4466915,-1.7363567,1.0705742,-1.5164278,42.332348,206.93299)" /><path
   sodipodi:type="star"
   style="fill:#000000;fill-opacity:1;fill-rule:evenodd;stroke:none;stroke-width:0.5332"
   id="path1460-9"
   inkscape:flatsided="true"
   sodipodi:sides="3"
   sodipodi:cx="36.668713"
   sodipodi:cy="51.515747"
   sodipodi:r1="5.1241198"
   sodipodi:r2="2.5620596"
   sodipodi:arg1="0.91920914"
   sodipodi:arg2="1.9664067"
   inkscape:rounded="0"
   inkscape:randomized="0"
   d="m 39.776231,55.590049 -8.189726,-3.420263 7.056897,-5.382379 z"
   inkscape:transform-center-x="-0.11422325"
   inkscape:transform-center-y="-2.1039306"
   transform="matrix(2.1724461,-0.62316035,0.95558761,1.591394,-114.47798,-17.275139)" /><path
   sodipodi:type="star"
   style="fill:#000000;fill-opacity:1;fill-rule:evenodd;stroke:none;stroke-width:0.5332"
   id="path1460-9-3"
   inkscape:flatsided="true"
   sodipodi:sides="3"
   sodipodi:cx="36.668713"
   sodipodi:cy="51.515747"
   sodipodi:r1="5.1241198"
   sodipodi:r2="2.5620596"
   sodipodi:arg1="0.91920914"
   sodipodi:arg2="1.9664067"
   inkscape:rounded="0"
   inkscape:randomized="0"
   d="m 39.776231,55.590049 -8.189726,-3.420263 7.056897,-5.382379 z"
   inkscape:transform-center-x="1.6786563"
   inkscape:transform-center-y="-2.6705623"
   transform="matrix(-0.89691996,2.0744603,-1.8363245,-0.27128366,181.56155,-36.13505)" /></svg>
