<?xml version="1.0" encoding="UTF-8" standalone="no"?>
<!-- Generator: Adobe Illustrator 25.2.1, SVG Export Plug-In . SVG Version: 6.00 Build 0)  -->

<svg
   width="24px"
   height="24px"
   version="1.1"
   id="Layer_1"
   x="0px"
   y="0px"
   viewBox="0 0 74.4 74.4"
   style="enable-background:new 0 0 74.4 74.4;"
   xml:space="preserve"
   preserveAspectRatio="xMinYMid meet"
   sodipodi:docname="monologo.svg"
   inkscape:version="1.2.2 (b0a8486, 2022-12-01)"
   xmlns:inkscape="http://www.inkscape.org/namespaces/inkscape"
   xmlns:sodipodi="http://sodipodi.sourceforge.net/DTD/sodipodi-0.dtd"
   xmlns="http://www.w3.org/2000/svg"
   xmlns:svg="http://www.w3.org/2000/svg"><defs
   id="defs70">
	
	
	
	
</defs><sodipodi:namedview
   id="namedview68"
   pagecolor="#ffffff"
   bordercolor="#666666"
   borderopacity="1.0"
   inkscape:showpageshadow="2"
   inkscape:pageopacity="0.0"
   inkscape:pagecheckerboard="0"
   inkscape:deskcolor="#d1d1d1"
   showgrid="false"
   inkscape:zoom="7.9525591"
   inkscape:cx="10.436892"
   inkscape:cy="21.062402"
   inkscape:window-width="1280"
   inkscape:window-height="667"
   inkscape:window-x="1417"
   inkscape:window-y="25"
   inkscape:window-maximized="0"
   inkscape:current-layer="Layer_1"
   showguides="false" />

<ellipse
   style="fill:#000000;fill-opacity:1;fill-rule:nonzero;stroke-width:7.502;stroke:none"
   id="path1067"
   cx="36.859512"
   cy="11.056726"
   rx="7.9905748"
   ry="7.711834" /><ellipse
   style="fill:#000000;fill-opacity:1;fill-rule:nonzero;stroke-width:7.502;stroke:none"
   id="path1067-5"
   cx="62.804279"
   cy="63.73877"
   rx="7.9905748"
   ry="7.711834" /><ellipse
   style="fill:#000000;fill-opacity:1;fill-rule:nonzero;stroke-width:7.502;stroke:none"
   id="path1067-7"
   cx="11.707121"
   cy="63.73877"
   rx="7.9905748"
   ry="7.711834" /><path
   id="path1161"
   style="color:#000000;fill:#000000;stroke-width:0.999995;-inkscape-stroke:none;stroke:none"
   d="M 45.955078 15.857227 A 10.850001 10.850001 0 0 1 36.945703 21.033984 A 10.850001 10.850001 0 0 1 28.099805 16.105469 C 27.818364 16.202981 27.543357 16.325922 27.264258 16.432422 C 25.753201 17.702418 23.003447 20.134783 22.057227 21.851367 C 20.735798 24.248638 20.3323 25.462431 20.495117 27.942383 C 20.624526 29.91353 21.508704 31.888118 22.408398 32.725586 C 23.463001 31.156045 24.773049 29.716328 26.356055 28.487305 C 33.196526 23.176449 42.531078 23.512849 48.964258 28.783984 L 56.817187 22.160156 C 53.651386 19.215402 49.925156 17.100704 45.955078 15.857227 z M 55.182422 38.538086 C 56.878385 45.288403 54.588489 52.643992 48.716016 57.198633 C 47.033089 58.503897 45.195512 59.446865 43.291016 60.080664 L 46.064062 69.85293 C 48.489025 69.104991 50.843905 68.035406 53.051172 66.601562 A 10.850001 10.850001 0 0 1 52.821094 64.833594 A 10.850001 10.850001 0 0 1 63.453125 54.019922 C 63.456319 53.910353 63.633225 47.758658 62.653906 45.228516 C 61.665814 42.675719 60.995848 41.592933 58.99082 40.124414 C 57.809179 39.258981 56.354492 38.706632 55.182422 38.538086 z M 9.2818359 41.710742 C 9.1388343 45.746624 9.8280482 49.83013 11.425195 53.662695 A 10.850001 10.850001 0 0 1 21.748437 64.488477 A 10.850001 10.850001 0 0 1 21.530469 66.117187 C 21.573987 66.147039 21.620013 66.172362 21.663672 66.201953 C 23.14912 66.378986 26.042055 66.658323 27.839453 65.953711 C 30.160959 65.043639 31.33677 64.191272 32.604492 62.744727 C 33.053149 62.232783 33.441304 61.440154 33.773047 60.607422 C 29.744796 59.734617 25.980945 57.485824 23.225781 53.947266 C 20.441145 50.370853 19.197029 46.125047 19.375 41.971094 L 9.2818359 41.710742 z M 63.628711 53.947266 L 63.537891 54.007812 A 10.850001 10.850001 0 0 1 63.616602 53.989648 C 63.622313 53.97608 63.623021 53.960842 63.628711 53.947266 z " /><path
   sodipodi:type="star"
   style="fill:#000000;fill-opacity:1;fill-rule:evenodd;stroke:none;stroke-width:0.5332"
   id="path1460"
   inkscape:flatsided="true"
   sodipodi:sides="3"
   sodipodi:cx="36.668713"
   sodipodi:cy="51.515747"
   sodipodi:r1="5.1241198"
   sodipodi:r2="2.5620596"
   sodipodi:arg1="0.91920914"
   sodipodi:arg2="1.9664067"
   inkscape:rounded="0"
   inkscape:randomized="0"
   d="m 39.776231,55.590049 -8.189726,-3.420263 7.056897,-5.382379 z"
   inkscape:transform-center-x="-0.066887309"
   inkscape:transform-center-y="-1.8707112"
   transform="matrix(-1.4466915,-1.7363567,1.0705742,-1.5164278,42.332348,206.93299)" /><path
   sodipodi:type="star"
   style="fill:#000000;fill-opacity:1;fill-rule:evenodd;stroke:none;stroke-width:0.5332"
   id="path1460-9"
   inkscape:flatsided="true"
   sodipodi:sides="3"
   sodipodi:cx="36.668713"
   sodipodi:cy="51.515747"
   sodipodi:r1="5.1241198"
   sodipodi:r2="2.5620596"
   sodipodi:arg1="0.91920914"
   sodipodi:arg2="1.9664067"
   inkscape:rounded="0"
   inkscape:randomized="0"
   d="m 39.776231,55.590049 -8.189726,-3.420263 7.056897,-5.382379 z"
   inkscape:transform-center-x="-0.11422325"
   inkscape:transform-center-y="-2.1039306"
   transform="matrix(2.1724461,-0.62316035,0.95558761,1.591394,-114.47798,-17.275139)" /><path
   sodipodi:type="star"
   style="fill:#000000;fill-opacity:1;fill-rule:evenodd;stroke:none;stroke-width:0.5332"
   id="path1460-9-3"
   inkscape:flatsided="true"
   sodipodi:sides="3"
   sodipodi:cx="36.668713"
   sodipodi:cy="51.515747"
   sodipodi:r1="5.1241198"
   sodipodi:r2="2.5620596"
   sodipodi:arg1="0.91920914"
   sodipodi:arg2="1.9664067"
   inkscape:rounded="0"
   inkscape:randomized="0"
   d="m 39.776231,55.590049 -8.189726,-3.420263 7.056897,-5.382379 z"
   inkscape:transform-center-x="1.6786563"
   inkscape:transform-center-y="-2.6705623"
   transform="matrix(-0.89691996,2.0744603,-1.8363245,-0.27128366,181.56155,-36.13505)" /></svg>
